<?xml version="1.0" encoding="UTF-8"?> <svg xmlns="http://www.w3.org/2000/svg" id="Layer_1" data-name="Layer 1" viewBox="0 0 355.68 44.45"><defs><style>.cls-1{fill:#232f5d;}</style></defs><title>Inclusion Labs_Pantone_Blue</title><rect class="cls-1" y="1.86" width="8.6" height="41.28"></rect><path class="cls-1" d="M69,84.79A10.49,10.49,0,0,0,70.88,84a3.3,3.3,0,0,0,1.23-1,3.11,3.11,0,0,0-.16-1,2.77,2.77,0,0,0-.28-.66l-4.73-.51a6.2,6.2,0,0,0,.7-1.61A7.83,7.83,0,0,0,68,76.86V61.36c.29-.13.76-.32,1.39-.57l2-.76q1-.37,2-.63a6.13,6.13,0,0,1,1.42-.25,3.2,3.2,0,0,1,1.14.35,14.56,14.56,0,0,1,1.57.85,6.88,6.88,0,0,1,1.39,1.1,1.77,1.77,0,0,1,.56,1.17V75.91a14.52,14.52,0,0,1-.25,3.18,2.75,2.75,0,0,1-.69,1.42,2.31,2.31,0,0,1-1.07.5l-1.45.19a8,8,0,0,0-.41.79,2.36,2.36,0,0,0-.22,1c.5.17,1.29.38,2.36.63s2.24.48,3.5.69,2.4.39,3.43.54a17.36,17.36,0,0,0,2.11.22,5.43,5.43,0,0,0,1.7-.32A10,10,0,0,0,90.19,84a3.33,3.33,0,0,0,1.2-1,3.19,3.19,0,0,0-.16-1,6.47,6.47,0,0,0-.28-.72L86,80.76a5.24,5.24,0,0,0,.54-1.35,8,8,0,0,0,.28-2.24V59.85a3.15,3.15,0,0,0-1.07-2.21,12.1,12.1,0,0,0-2.74-2,18.57,18.57,0,0,0-3.47-1.48,10.75,10.75,0,0,0-3.24-.57,6.55,6.55,0,0,0-2.65.69,22.5,22.5,0,0,0-3,1.7l-2.84,1.89a4.34,4.34,0,0,0-1.44-3.08,4.72,4.72,0,0,0-3.28-1.2,12.44,12.44,0,0,0-3.56.6,18.13,18.13,0,0,0-3.06,1.16,2.37,2.37,0,0,0-.5.82,6.44,6.44,0,0,0-.31,1.32l3.71,1.33a1.23,1.23,0,0,1,.79.66,2.23,2.23,0,0,1,.22,1V75.91a10.45,10.45,0,0,1-.47,3.91A2,2,0,0,1,58.37,81l-1.7.25c-.12.21-.26.49-.41.82A2.63,2.63,0,0,0,56,83q.76.25,2.37.63c1.07.25,2.21.48,3.43.69s2.33.39,3.34.54a16.67,16.67,0,0,0,2.08.22A5.76,5.76,0,0,0,69,84.79Z" transform="translate(-43.26 -40.86)"></path><path class="cls-1" d="M98.46,69q0-10.12,7.16-10.12a7.44,7.44,0,0,1,2.4.38,1.83,1.83,0,0,1,1.16,2v2.85l5.44-.42V56a20.16,20.16,0,0,0-9.74-2.43,13.35,13.35,0,0,0-9.41,3.94Q91.3,61.45,91.3,69.27t3.64,11.81q3.63,4,10,4a16.1,16.1,0,0,0,10.54-3.44l-2.54-4.56a11.93,11.93,0,0,1-7.08,2.55,6.24,6.24,0,0,1-5.48-2.78C99.09,75,98.46,72.39,98.46,69Z" transform="translate(-43.26 -40.86)"></path><path class="cls-1" d="M118.9,42.42c0,2.65.1,5.15.15,7.52s.08,4.61.12,6.74.06,4.18.08,6.14,0,3.86,0,5.72q0,4.15-.06,8.12t-.22,8l7.14.14q0-3.77,0-6.84V72.21c0-1.62,0-3.17,0-4.65s0-2.94.06-4.4,0-2.94.09-4.44.09-3.07.15-4.73.14-3.42.23-5.3.19-3.91.3-6.11Z" transform="translate(-43.26 -40.86)"></path><path class="cls-1" d="M156.63,76.75l.53-23.17-8.47.71V75.42A8.89,8.89,0,0,1,142.9,78c-2.68,0-4-1.57-4-4.72l.26-19.7-8.55.71.26,14.09-.17,7.84c0,2.91.89,5.13,2.67,6.64s4.34,2.27,7.67,2.27a19.24,19.24,0,0,0,7.84-4.81h.71q1.08,4.64,5.26,5a12.15,12.15,0,0,0,4.91-1.69l.8-4.64-.63-.53a7.72,7.72,0,0,1-1.87.27C157.1,78.72,156.63,78.06,156.63,76.75Z" transform="translate(-43.26 -40.86)"></path><path class="cls-1" d="M177.05,84.76c1.33-.26,2.63-.57,3.9-1a32.72,32.72,0,0,0,3.42-1.21,10.53,10.53,0,0,0,2.28-1.2,9.15,9.15,0,0,0,.89-3,23.81,23.81,0,0,0,.38-4.25c0-.67,0-1.38-.09-2.12a7.53,7.53,0,0,0-.35-1.81A7.28,7.28,0,0,0,185,68.75a39.57,39.57,0,0,0-4-1.36c-1.48-.42-2.94-.81-4.4-1.17s-2.69-.68-3.68-1a7.79,7.79,0,0,1-1.74-.61,9.41,9.41,0,0,1-.19-1.1,11.11,11.11,0,0,1-.07-1.24c0-.38,0-.81.07-1.3a7.64,7.64,0,0,1,.25-1.43c.55-.12,1.17-.24,1.87-.34s1.46-.18,2.28-.23S177,59,177.78,59c.38,0,.83.5,1.36,1.49s1.11,2.19,1.75,3.58a6.69,6.69,0,0,0,1.33.44,10.68,10.68,0,0,0,2.28.32,11.56,11.56,0,0,0,1.05-2.12c.35-.91.66-1.82.91-2.73a8.08,8.08,0,0,0,.38-2c0-.22-.35-.57-1.07-1.08a17.21,17.21,0,0,0-2.7-1.52A32.82,32.82,0,0,0,179.84,54a8.48,8.48,0,0,0-2.69-.57,16,16,0,0,0-3.55.44c-1.31.3-2.61.65-3.9,1.08s-2.46.85-3.52,1.3a11.53,11.53,0,0,0-2.28,1.17,15.14,15.14,0,0,0-.92,3.42,25.37,25.37,0,0,0-.35,4.12c0,.59,0,1.22.06,1.87a15.19,15.19,0,0,0,.19,1.62,4.59,4.59,0,0,0,2,1.17c1.12.44,2.46.91,4,1.39s3.11,1,4.66,1.37,2.85.8,3.93,1.14a5.25,5.25,0,0,1,1.8.76,6.72,6.72,0,0,1,.13.79,9.51,9.51,0,0,1,.06,1,9.63,9.63,0,0,1-.16,1.77,5.86,5.86,0,0,1-.35,1.33,8,8,0,0,1-2.5.64c-.91.08-1.74.12-2.5.12-.47,0-1.09,0-1.87-.12a12.44,12.44,0,0,1-1.87-.32A24.75,24.75,0,0,1,169,76.9c-.42-1-.76-1.84-1-2.47a4.92,4.92,0,0,0-1.34-.51,8.3,8.3,0,0,0-2.15-.25,18.47,18.47,0,0,0-1.3,3.17,14.12,14.12,0,0,0-.73,3.92c.09.26.5.62,1.24,1.08a23.34,23.34,0,0,0,2.79,1.46A26.66,26.66,0,0,0,170,84.6a12.42,12.42,0,0,0,3.49.54A19.6,19.6,0,0,0,177.05,84.76Z" transform="translate(-43.26 -40.86)"></path><path class="cls-1" d="M191.46,84.24H197a.72.72,0,0,0,.72-.72V54.24a.72.72,0,0,0-.72-.72h-5.52a.72.72,0,0,0-.72.72V83.52a.72.72,0,0,0,.72.72Zm2.76-34.86a4.26,4.26,0,1,0,0-8.52,4,4,0,0,0-3,1.2,4.59,4.59,0,0,0,0,6.12A4,4,0,0,0,194.22,49.38Z" transform="translate(-43.26 -40.86)"></path><path class="cls-1" d="M218.84,58.33q1.53,3.44,1.53,11.18c0,5.17-.51,8.88-1.53,11.16s-2.33,3.41-3.91,3.41-2.83-1.14-3.87-3.41-1.56-6-1.56-11.16.52-8.89,1.56-11.18,2.33-3.44,3.87-3.44S217.81,56,218.84,58.33Zm-11.22-3a11.18,11.18,0,0,0-5,5,19.88,19.88,0,0,0-1.82,9.19,19.66,19.66,0,0,0,1.82,9.16,11.15,11.15,0,0,0,5,5,18.12,18.12,0,0,0,14.71,0,11,11,0,0,0,5-5,19.8,19.8,0,0,0,1.8-9.16,20,20,0,0,0-1.8-9.19,11,11,0,0,0-5-5,18.12,18.12,0,0,0-14.71,0Z" transform="translate(-43.26 -40.86)"></path><path class="cls-1" d="M231.75,53.82v30.4h8.75V68.15q0-3.78,1.59-5.67a5,5,0,0,1,4-1.88,4.53,4.53,0,0,1,3.54,1.4,6,6,0,0,1,1.25,4.11V84.22h8.76V64.49q0-5.38-2.64-8.18a9.58,9.58,0,0,0-7.31-2.79A10.54,10.54,0,0,0,244,55a8.93,8.93,0,0,0-3.51,4V53.82Z" transform="translate(-43.26 -40.86)"></path><path class="cls-1" d="M314.72,84.12A35,35,0,0,1,315.3,78q.58-3.28,1.2-6h-1.35l-2.89,4.74a12.25,12.25,0,0,1-2.4,3,8.81,8.81,0,0,1-3.14,1.79,13.22,13.22,0,0,1-4.12.58h-7.75c-1.64,0-2.76-.33-3.35-1a3.78,3.78,0,0,1-.89-2.65V48.38a3.8,3.8,0,0,1,.61-2.58,5.78,5.78,0,0,1,2.71-1l3.13-.68V42.72H275.53v1.35l3.14.68a5.65,5.65,0,0,1,2.74,1,4,4,0,0,1,.58,2.58V78.46a3.82,3.82,0,0,1-.58,2.52,6,6,0,0,1-2.74,1.11l-3.14.68v1.35Z" transform="translate(-43.26 -40.86)"></path><path class="cls-1" d="M326,78.57a4.4,4.4,0,0,1-.63-2.51,5.82,5.82,0,0,1,.37-2.16,5.74,5.74,0,0,1,1.05-1.74,8.94,8.94,0,0,1,1.64-1.46c.63-.44,1.32-.88,2.06-1.34v8.39a8.36,8.36,0,0,1-.66.79,3.47,3.47,0,0,1-.92.69,2.58,2.58,0,0,1-1.11.26A2.06,2.06,0,0,1,326,78.57Zm2.85,5.06a7.68,7.68,0,0,0,2-3.4c.07.32.17.93.31,1.85s.27,1.76.37,2.53h7.18c-.07-.53-.15-1.15-.24-1.87s-.15-1.55-.21-2.48-.08-2-.08-3.2V62.87A9.94,9.94,0,0,0,336,56.14q-2.22-2.56-6.86-2.56-5.17,0-7.74,2.58c-1.7,1.73-2.64,4.38-2.82,8l7.55.32.16-2.11a7,7,0,0,1,.23-1.45,1.9,1.9,0,0,1,.64-1,2.15,2.15,0,0,1,1.29-.34,1.86,1.86,0,0,1,1.29.4,2,2,0,0,1,.61,1.13,8.18,8.18,0,0,1,.16,1.74v2.85q-2.22.8-4.44,1.75a20.73,20.73,0,0,0-4,2.26,10.5,10.5,0,0,0-2.9,3.28,9.57,9.57,0,0,0-1.11,4.8,8.19,8.19,0,0,0,.79,3.48,7.15,7.15,0,0,0,2.35,2.8,6.25,6.25,0,0,0,3.72,1.11A5.26,5.26,0,0,0,328.86,83.63Z" transform="translate(-43.26 -40.86)"></path><path class="cls-1" d="M357.64,78.65a8.92,8.92,0,0,1-4.53-1.15,8.23,8.23,0,0,1-3.19-3.27,10.87,10.87,0,0,1,0-9.85,8.32,8.32,0,0,1,3.19-3.28A9,9,0,0,1,357.64,60,8.46,8.46,0,0,1,364,62.53a9.33,9.33,0,0,1,2.49,6.77A9.31,9.31,0,0,1,364,76.07,8.43,8.43,0,0,1,357.64,78.65ZM358.42,54a13.84,13.84,0,0,0-5.34,1,11.66,11.66,0,0,0-4.22,3V42.72h-7V84.24h6.66V80.38a10.82,10.82,0,0,0,4.28,3.19,14.43,14.43,0,0,0,5.62,1.07,15.85,15.85,0,0,0,7.81-1.91,13.56,13.56,0,0,0,5.4-5.4,16.11,16.11,0,0,0,2-8,15.94,15.94,0,0,0-2-8,13.67,13.67,0,0,0-5.4-5.37A15.85,15.85,0,0,0,358.42,54Z" transform="translate(-43.26 -40.86)"></path><path class="cls-1" d="M385.44,85q6.31,0,9.91-2.65A8.59,8.59,0,0,0,398.94,75a6.68,6.68,0,0,0-.77-3.34,8.88,8.88,0,0,0-2.7-2.73,44.43,44.43,0,0,0-5.72-3.19c-1.73-.88-3-1.56-3.77-2a6.26,6.26,0,0,1-1.64-1.32,2.29,2.29,0,0,1-.46-1.41,2.47,2.47,0,0,1,.18-1.09c.92-.08,1.53-.11,1.84-.11a15.55,15.55,0,0,1,4.36.46l3.85,4.13,3-.46a73.84,73.84,0,0,0,.52-8.33,25.1,25.1,0,0,0-4.8-1.47,25.65,25.65,0,0,0-5.09-.54c-3.9,0-7,.9-9.28,2.7a8.81,8.81,0,0,0-3.42,7.3,7.57,7.57,0,0,0,.78,3.56,9.28,9.28,0,0,0,2.56,2.91,35,35,0,0,0,5.17,3.19c1.8.88,3.06,1.53,3.79,2a4.59,4.59,0,0,1,1.41,1.09,2,2,0,0,1,.32,1.15,3.89,3.89,0,0,1-.17,1.27,10.06,10.06,0,0,1-2.07.17,14.44,14.44,0,0,1-4.26-.58l-3.62-3.85-3.28.63c-.26,1.81-.51,4.58-.74,8.34A41.23,41.23,0,0,0,385.44,85Z" transform="translate(-43.26 -40.86)"></path></svg> 